<svg xmlns="http://www.w3.org/2000/svg" width="12" height="20" viewBox="0 0 12 20">
  <metadata><?xpacket begin="﻿" id="W5M0MpCehiHzreSzNTczkc9d"?>
<x:xmpmeta xmlns:x="adobe:ns:meta/" x:xmptk="Adobe XMP Core 5.6-c138 79.159824, 2016/09/14-01:09:01        ">
   <rdf:RDF xmlns:rdf="http://www.w3.org/1999/02/22-rdf-syntax-ns#">
      <rdf:Description rdf:about=""/>
   </rdf:RDF>
</x:xmpmeta>
                                                                                                    
                                                                                                    
                                                                                                    
                                                                                                    
                                                                                                    
                                                                                                    
                                                                                                    
                                                                                                    
                                                                                                    
                                                                                                    
                                                                                                    
                                                                                                    
                                                                                                    
                                                                                                    
                                                                                                    
                                                                                                    
                                                                                                    
                                                                                                    
                                                                                                    
                                                                                                    
                           
<?xpacket end="w"?></metadata>
<defs>
    <style>
      .cls-1 {
        fill: #fff;
        fill-rule: evenodd;
      }
    </style>
  </defs>
  <path id="_" data-name="" class="cls-1" d="M1401.36,2277.9a5.087,5.087,0,1,0-1.49,3.57,4.878,4.878,0,0,0,1.49-3.57h0Zm-2.58,0a2.489,2.489,0,0,1-4.25,1.76,2.493,2.493,0,1,1,4.25-1.76h0Zm3.04,5.28a1.309,1.309,0,0,0-.47-0.24,1.053,1.053,0,0,0-.63.02,1.971,1.971,0,0,0-.72.39l-0.43.28a5.458,5.458,0,0,1-1.34.56,6.5,6.5,0,0,1-1.94.29,6.736,6.736,0,0,1-1.26-.13,8.032,8.032,0,0,1-1.03-.26,7.588,7.588,0,0,1-.77-0.35q-0.36-.195-0.48-0.27a1.623,1.623,0,0,1-.16-0.12,2.089,2.089,0,0,0-.73-0.39,1.021,1.021,0,0,0-.62-0.02,1.232,1.232,0,0,0-.47.24,1.2,1.2,0,0,0-.32.39,1.668,1.668,0,0,0-.16.55,0.992,0.992,0,0,0,.05.46,1.35,1.35,0,0,0,.29.43,3.717,3.717,0,0,0,.48.41c0.16,0.12.39,0.28,0.68,0.46a8.109,8.109,0,0,0,3.54,1.05l-0.8.8-2.98,2.98a1.158,1.158,0,0,0-.35.83,1.12,1.12,0,0,0,.35.82l0.13,0.14a1.159,1.159,0,0,0,1.64,0l2.98-2.99c1.49,1.49,2.48,2.48,2.98,2.99a1.173,1.173,0,0,0,.83.34,1.15,1.15,0,0,0,.82-0.34l0.14-.14a1.14,1.14,0,0,0,.33-0.82,1.18,1.18,0,0,0-.33-0.83l-2.98-2.98-0.82-.8a8.145,8.145,0,0,0,3.52-1.05c0.29-.18.52-0.34,0.69-0.46a4.448,4.448,0,0,0,.47-0.41,1.406,1.406,0,0,0,.3-0.43,1.356,1.356,0,0,0,.05-0.46,2,2,0,0,0-.17-0.55A1.3,1.3,0,0,0,1401.82,2283.18Z" transform="translate(-1390.28 -2272.84)"/>
</svg>
