<svg xmlns="http://www.w3.org/2000/svg" width="17.97" height="18" viewBox="0 0 17.97 18">
  <metadata><?xpacket begin="﻿" id="W5M0MpCehiHzreSzNTczkc9d"?>
<x:xmpmeta xmlns:x="adobe:ns:meta/" x:xmptk="Adobe XMP Core 5.6-c138 79.159824, 2016/09/14-01:09:01        ">
   <rdf:RDF xmlns:rdf="http://www.w3.org/1999/02/22-rdf-syntax-ns#">
      <rdf:Description rdf:about=""/>
   </rdf:RDF>
</x:xmpmeta>
                                                                                                    
                                                                                                    
                                                                                                    
                                                                                                    
                                                                                                    
                                                                                                    
                                                                                                    
                                                                                                    
                                                                                                    
                                                                                                    
                                                                                                    
                                                                                                    
                                                                                                    
                                                                                                    
                                                                                                    
                                                                                                    
                                                                                                    
                                                                                                    
                                                                                                    
                                                                                                    
                           
<?xpacket end="w"?></metadata>
<defs>
    <style>
      .cls-1 {
        fill: #1c3c50;
        fill-rule: evenodd;
      }
    </style>
  </defs>
  <path id="_" data-name="" class="cls-1" d="M1531.51,2394.55a0.629,0.629,0,0,0-.33.09l-16.71,9.64a0.607,0.607,0,0,0-.32.6,0.593,0.593,0,0,0,.4.55l3.97,1.62,10.74-9.29-8.68,10.64v3.51a0.663,0.663,0,0,0,.11.36,0.671,0.671,0,0,0,.31.24,0.481,0.481,0,0,0,.22.04,0.594,0.594,0,0,0,.49-0.23l2.43-2.96,4.55,1.85a0.574,0.574,0,0,0,.24.05,0.587,0.587,0,0,0,.32-0.08,0.623,0.623,0,0,0,.32-0.45l2.57-15.43a0.623,0.623,0,0,0-.27-0.64,0.663,0.663,0,0,0-.36-0.11h0Z" transform="translate(-1514.16 -2394.56)"/>
</svg>
