<svg xmlns="http://www.w3.org/2000/svg" width="17.59" height="14.28" fill="#1c3c50" viewBox="0 0 17.59 14.28">
  <metadata><?xpacket begin="﻿" id="W5M0MpCehiHzreSzNTczkc9d"?>
<x:xmpmeta xmlns:x="adobe:ns:meta/" x:xmptk="Adobe XMP Core 5.6-c138 79.159824, 2016/09/14-01:09:01        ">
   <rdf:RDF xmlns:rdf="http://www.w3.org/1999/02/22-rdf-syntax-ns#">
      <rdf:Description rdf:about=""/>
   </rdf:RDF>
</x:xmpmeta>
                                                                                                    
                                                                                                    
                                                                                                    
                                                                                                    
                                                                                                    
                                                                                                    
                                                                                                    
                                                                                                    
                                                                                                    
                                                                                                    
                                                                                                    
                                                                                                    
                                                                                                    
                                                                                                    
                                                                                                    
                                                                                                    
                                                                                                    
                                                                                                    
                                                                                                    
                                                                                                    
                           
<?xpacket end="w"?></metadata>
<defs>
    <style>
      .cls-1 {
        fill: #1c3c50;
        fill-rule: evenodd;
      }
    </style>
  </defs>
  <path id="_" data-name="" class="cls-1" d="M1340.15,2278.95a3.53,3.53,0,0,0,1.59-1.99,7.325,7.325,0,0,1-2.29.87,3.611,3.611,0,0,0-6.24,2.47,3.884,3.884,0,0,0,.09.82,9.942,9.942,0,0,1-4.15-1.11,10.1,10.1,0,0,1-3.28-2.66,3.639,3.639,0,0,0-.06,3.54,3.6,3.6,0,0,0,1.17,1.28,3.481,3.481,0,0,1-1.63-.46v0.05a3.514,3.514,0,0,0,.82,2.29,3.56,3.56,0,0,0,2.07,1.25,3.728,3.728,0,0,1-.94.12,4.392,4.392,0,0,1-.69-0.06,3.525,3.525,0,0,0,1.28,1.78,3.421,3.421,0,0,0,2.1.72,7.061,7.061,0,0,1-4.48,1.54,7.713,7.713,0,0,1-.87-0.04,10,10,0,0,0,5.54,1.62,10.43,10.43,0,0,0,3.6-.61,9.362,9.362,0,0,0,2.88-1.63,10.77,10.77,0,0,0,2.06-2.35,10.545,10.545,0,0,0,1.29-2.77,10.379,10.379,0,0,0,.42-2.9c0-.21,0-0.36-0.01-0.47a7.444,7.444,0,0,0,1.81-1.86,7.318,7.318,0,0,1-2.08.56h0Z" transform="translate(-1324.63 -2276.69)"/>
</svg>
