<svg xmlns="http://www.w3.org/2000/svg" width="21.43" height="12.22" viewBox="0 0 21.43 12.22">
  <metadata><?xpacket begin="﻿" id="W5M0MpCehiHzreSzNTczkc9d"?>
<x:xmpmeta xmlns:x="adobe:ns:meta/" x:xmptk="Adobe XMP Core 5.6-c138 79.159824, 2016/09/14-01:09:01        ">
   <rdf:RDF xmlns:rdf="http://www.w3.org/1999/02/22-rdf-syntax-ns#">
      <rdf:Description rdf:about=""/>
   </rdf:RDF>
</x:xmpmeta>
                                                                                                    
                                                                                                    
                                                                                                    
                                                                                                    
                                                                                                    
                                                                                                    
                                                                                                    
                                                                                                    
                                                                                                    
                                                                                                    
                                                                                                    
                                                                                                    
                                                                                                    
                                                                                                    
                                                                                                    
                                                                                                    
                                                                                                    
                                                                                                    
                                                                                                    
                                                                                                    
                           
<?xpacket end="w"?></metadata>
<defs>
    <style>
      .cls-1 {
        fill: #fff;
        fill-rule: evenodd;
      }
    </style>
  </defs>
  <path id="_" data-name="" class="cls-1" d="M1275.48,2278.53a0.68,0.68,0,0,0-.35-0.19,1.811,1.811,0,0,0-.71-0.02l-3.22.02a0.81,0.81,0,0,0-.22,0,0.592,0.592,0,0,0-.15.04,0.169,0.169,0,0,1-.05.02l-0.05.04a0.658,0.658,0,0,0-.12.12,0.862,0.862,0,0,0-.11.19,17.657,17.657,0,0,1-1.2,2.51q-0.4.69-.75,1.2a6.261,6.261,0,0,1-.58.75,3.347,3.347,0,0,1-.43.38,0.435,0.435,0,0,1-.29.13c-0.07-.02-0.13-0.03-0.19-0.05a0.724,0.724,0,0,1-.25-0.27,1.271,1.271,0,0,1-.13-0.44c-0.02-.17-0.03-0.32-0.04-0.45s0-.3.01-0.53,0.01-.39.01-0.47c0-.29.01-0.59,0.02-0.92s0.02-.6.02-0.79,0.02-.4.02-0.61a3.083,3.083,0,0,0-.04-0.51,2.533,2.533,0,0,0-.12-0.36,0.667,0.667,0,0,0-.23-0.27,1.423,1.423,0,0,0-.37-0.15,6.984,6.984,0,0,0-1.51-.14,7.394,7.394,0,0,0-2.67.26,1.532,1.532,0,0,0-.42.34c-0.14.16-.15,0.25-0.06,0.27a1.3,1.3,0,0,1,.95.48l0.07,0.13a2.307,2.307,0,0,1,.15.51,4.089,4.089,0,0,1,.1.82,8.006,8.006,0,0,1,0,1.39c-0.03.39-.07,0.69-0.1,0.91a1.609,1.609,0,0,1-.15.52,1.324,1.324,0,0,1-.14.25,0.11,0.11,0,0,1-.05.05,0.8,0.8,0,0,1-.3.06,0.663,0.663,0,0,1-.38-0.16,2.264,2.264,0,0,1-.47-0.43,5.276,5.276,0,0,1-.54-0.76,12.039,12.039,0,0,1-.62-1.16l-0.18-.32c-0.11-.21-0.26-0.52-0.46-0.91s-0.36-.79-0.51-1.16a0.766,0.766,0,0,0-.27-0.36l-0.06-.03a0.516,0.516,0,0,0-.17-0.09,1.294,1.294,0,0,0-.26-0.08l-3.06.03a0.768,0.768,0,0,0-.63.21l-0.05.06a0.418,0.418,0,0,0-.03.18,0.934,0.934,0,0,0,.06.3c0.45,1.05.94,2.06,1.46,3.04s0.98,1.76,1.37,2.35,0.78,1.16,1.18,1.69,0.67,0.87.8,1.02,0.23,0.26.31,0.33l0.27,0.27a7.332,7.332,0,0,0,.79.64c0.35,0.25.73,0.49,1.15,0.74a6.177,6.177,0,0,0,1.47.59,5.135,5.135,0,0,0,1.63.18h1.28a0.868,0.868,0,0,0,.59-0.24l0.05-.06a0.538,0.538,0,0,0,.08-0.21,0.948,0.948,0,0,0,.04-0.3,3.933,3.933,0,0,1,.07-0.87,2.61,2.61,0,0,1,.19-0.58,1.4,1.4,0,0,1,.24-0.33,1.28,1.28,0,0,1,.19-0.16c0.04-.02.07-0.03,0.09-0.04a0.715,0.715,0,0,1,.63.17,4.147,4.147,0,0,1,.68.65c0.22,0.26.47,0.55,0.77,0.87a5.1,5.1,0,0,0,.78.71l0.22,0.14a2.99,2.99,0,0,0,.58.24,1.3,1.3,0,0,0,.63.06l2.85-.05a1.2,1.2,0,0,0,.66-0.14,0.528,0.528,0,0,0,.28-0.3,0.962,0.962,0,0,0,.01-0.38,1.509,1.509,0,0,0-.08-0.3l-0.07-.14a11.41,11.41,0,0,0-2.13-2.47,0.154,0.154,0,0,0-.06-0.04c-0.25-.23-0.47-0.43-0.64-0.59a1.762,1.762,0,0,1-.36-0.48,2.1,2.1,0,0,1-.14-0.39,0.687,0.687,0,0,1,.13-0.47c0.12-.21.23-0.39,0.34-0.55s0.32-.42.61-0.8c0.31-.4.55-0.71,0.73-0.95,1.29-1.71,1.84-2.8,1.67-3.28Z" transform="translate(-1254.13 -2277.75)"/>
</svg>
