<svg xmlns="http://www.w3.org/2000/svg" width="20" height="20" fill="white" viewBox="0 0 20 20">
  <metadata><?xpacket begin="﻿" id="W5M0MpCehiHzreSzNTczkc9d"?>
<x:xmpmeta xmlns:x="adobe:ns:meta/" x:xmptk="Adobe XMP Core 5.6-c138 79.159824, 2016/09/14-01:09:01        ">
   <rdf:RDF xmlns:rdf="http://www.w3.org/1999/02/22-rdf-syntax-ns#">
      <rdf:Description rdf:about=""/>
   </rdf:RDF>
</x:xmpmeta>
                                                                                                    
                                                                                                    
                                                                                                    
                                                                                                    
                                                                                                    
                                                                                                    
                                                                                                    
                                                                                                    
                                                                                                    
                                                                                                    
                                                                                                    
                                                                                                    
                                                                                                    
                                                                                                    
                                                                                                    
                                                                                                    
                                                                                                    
                                                                                                    
                                                                                                    
                                                                                                    
                           
<?xpacket end="w"?></metadata>
<defs>
    <style>
      .cls-1 {
        fill: #fff;
        fill-rule: evenodd;
      }
    </style>
  </defs>
  <path id="_" data-name="" class="cls-1" d="M1518.35,49.725a5.395,5.395,0,1,1,3.8-1.58A5.2,5.2,0,0,1,1518.35,49.725Zm11.09,3.533-4.12-4.122a8.252,8.252,0,0,0,1.49-4.794,8.4,8.4,0,0,0-.67-3.287,8.663,8.663,0,0,0-1.8-2.7,8.468,8.468,0,0,0-2.71-1.8,8.5,8.5,0,0,0-9.27,1.8,8.52,8.52,0,0,0-1.81,2.7,8.513,8.513,0,0,0,0,6.573,8.518,8.518,0,0,0,1.81,2.7,8.549,8.549,0,0,0,5.99,2.469,8.21,8.21,0,0,0,4.79-1.49l4.12,4.11a1.432,1.432,0,0,0,1.08.456,1.541,1.541,0,0,0,1.1-2.619h0Z" transform="translate(-1509.88 -35.875)"/>
</svg>
